<?xml version="1.0" encoding="UTF-8"?>
<svg width="32" height="32" version="1.1" viewBox="0 0 32 32" xmlns="http://www.w3.org/2000/svg">
 <g transform="matrix(.88185 0 0 .88185 1.8905 1.8905)">
  <path d="m32 16.004c0 8.8359-7.1641 15.996-16 15.996s-16-7.1602-16-15.996c0-8.8398 7.1641-16.004 16-16.004s16 7.1641 16 16.004z" fill="#268bd2" fill-rule="evenodd"/>
  <g fill="#fff" fill-opacity=".902">
   <path d="m13.516 20v-0.88281c0-0.76172 0.17578-1.4258 0.53125-1.9883 0.35547-0.56641 1.0078-1.1641 1.9531-1.8008 0.91016-0.59766 1.5078-1.082 1.7969-1.457 0.29297-0.37109 0.44141-0.78906 0.44141-1.25 0-0.51562-0.20703-0.91016-0.625-1.1797-0.41406-0.26953-0.99609-0.40625-1.7422-0.40625-1.3047 0-2.7852 0.39062-4.4531 1.168l-1.418-2.6094c1.9336-0.99219 3.9883-1.4922 6.1562-1.4922 1.7891 0 3.207 0.39453 4.2578 1.1836 1.0547 0.78516 1.5859 1.8359 1.5859 3.1445 0 0.875-0.21875 1.6289-0.65234 2.2656-0.43359 0.63672-1.2578 1.3516-2.4727 2.1445-0.83203 0.56641-1.3594 0.99609-1.5859 1.2891-0.21875 0.29297-0.32422 0.67969-0.32422 1.1562v0.71484h-3.4492"/>
   <path d="m13.199 24c0-0.66016 0.17188-1.1562 0.51562-1.4922 0.34375-0.33984 0.83984-0.50781 1.4961-0.50781 0.63281 0 1.1211 0.17188 1.4648 0.51953 0.34766 0.34375 0.52344 0.83594 0.52344 1.4805 0 0.62109-0.17578 1.1094-0.52344 1.4688-0.35156 0.35547-0.83984 0.53125-1.4648 0.53125-0.64063 0-1.1328-0.17188-1.4844-0.51953-0.35156-0.35156-0.52734-0.84375-0.52734-1.4805"/>
  </g>
 </g>
</svg>
