<?xml version="1.0" encoding="UTF-8"?>
<svg width="48" height="48" version="1.1" xmlns="http://www.w3.org/2000/svg">
 <defs>
  <linearGradient id="a" x2="0" y1="545.8" y2="517.8" gradientUnits="userSpaceOnUse">
   <stop stop-color="#197cf1" stop-opacity=".89961" offset="0"/>
   <stop stop-color="#20bcfa" offset="1"/>
  </linearGradient>
  <linearGradient id="b" x1="393.57" x2="407.57" y1="524.8" y2="538.8" gradientTransform="translate(-384.57-515.8)" gradientUnits="userSpaceOnUse">
   <stop stop-color="#383e51" offset="0"/>
   <stop stop-color="#655c6f" stop-opacity="0" offset="1"/>
  </linearGradient>
 </defs>
 <g transform="translate(-384.57-499.8)">
  <g transform="matrix(1.42857 0 0 1.42857-163.67-235.91)">
   <rect x="386.57" y="517.8" width="28" height="28" rx="14" fill="url(#a)"/>
   <path transform="translate(384.57 515.8)" d="m16 9c.218 0 .429.022.635.063.001 0 .003 0 .004 0 .205.038.401.098.592.17l-.23-.232zm-.044.3c-2.198.444-2.694 1.209-2.756 3.2-.605 4.836 4.627 1.7 2.8 3.5l-2.1.7c-2.941 1.565-4.399 2.581-4.9 6.3l7 7h14v-10l-1 1-9-9-.732-.73c.072.191.132.387.17.592 0 .001 0 .003 0 .004.038.206.063.417.063.635-1.865 1.706-1.296 1.605-.431.022 0-1.385-1.727-3.222-3.113-3.222" fill="url(#b)" fill-rule="evenodd" opacity=".2"/>
  </g>
  <path transform="translate(384.57,499.8)" d="m24 14c-2.7614 0-5 2.2386-5 5s2.2386 5 5 5 5-2.2386 5-5-2.2386-5-5-5m0 10c-5.5228 0-10 4.4772-10 10h16v-1h-14.94c0.50911-4.5536 4.358-7.9978 8.94-8 2.2155 0.0035 4.3518 0.82414 6 2.3047v-1.2947c-1.7297-1.3018-3.8352-2.0071-6-2.01m0-9c2.2091 6e-6 4 1.7909 4 4s-1.7909 4-4 4c-2.2091-6e-6 -4-1.7909-4-4s1.7909-4 4-4m8 19h2z" color="#4d4d4d" color-rendering="auto" fill="#fff" image-rendering="auto" shape-rendering="auto" text-rendering="auto"/>
 </g>
</svg>
