<?xml version="1.0" encoding="UTF-8" standalone="no"?>
<svg
   viewBox="0 0 22 22"
   version="1.1"
   id="svg1"
   sodipodi:docname="shutdown.svg"
   inkscape:version="1.3.2 (091e20ef0f, 2023-11-25, custom)"
   xmlns:inkscape="http://www.inkscape.org/namespaces/inkscape"
   xmlns:sodipodi="http://sodipodi.sourceforge.net/DTD/sodipodi-0.dtd"
   xmlns="http://www.w3.org/2000/svg"
   xmlns:svg="http://www.w3.org/2000/svg">
  <sodipodi:namedview
     id="namedview1"
     pagecolor="#ffffff"
     bordercolor="#000000"
     borderopacity="0.25"
     inkscape:showpageshadow="2"
     inkscape:pageopacity="0.0"
     inkscape:pagecheckerboard="0"
     inkscape:deskcolor="#d1d1d1"
     inkscape:zoom="37.045455"
     inkscape:cx="11"
     inkscape:cy="11"
     inkscape:window-width="1920"
     inkscape:window-height="1025"
     inkscape:window-x="0"
     inkscape:window-y="0"
     inkscape:window-maximized="1"
     inkscape:current-layer="svg1" />
  <defs
     id="defs3051">
    <style
       type="text/css"
       id="current-color-scheme">
      .ColorScheme-Text {
        color:#eff0f1;
      }
      </style>
  </defs>
  <path
     style="fill:currentColor;fill-opacity:1;stroke:none"
     d="M 10 3 L 10 10 L 12 10 L 12 3 L 10 3 z M 9 3.265625 C 5.5444518 4.1502188 3 7.2610109 3 11 C 3 15.432 6.568 19 11 19 C 15.432 19 19 15.432 19 11 C 19 7.2610109 16.455548 4.1502188 13 3.265625 L 13 4.3027344 C 15.895041 5.15992 18 7.819625 18 11 C 18 14.878 14.878 18 11 18 C 7.122 18 4 14.878 4 11 C 4 7.819625 6.1049587 5.15992 9 4.3027344 L 9 3.265625 z "
     class="ColorScheme-Text"
     id="path1" />
</svg>
